<?xml version="1.0" standalone="no"?>
<!DOCTYPE svg PUBLIC "-//W3C//DTD SVG 20010904//EN"
 "http://www.w3.org/TR/2001/REC-SVG-20010904/DTD/svg10.dtd">
<svg version="1.0" xmlns="http://www.w3.org/2000/svg"
 width="491.000000pt" height="491.000000pt" viewBox="0 0 491.000000 491.000000"
 preserveAspectRatio="xMidYMid meet">
<metadata>
Created by potrace 1.14, written by Peter Selinger 2001-2017
</metadata>
<g transform="translate(0.000000,491.000000) scale(0.100000,-0.100000)"
fill="#000000" stroke="none">
<path d="M2897 3694 c-1 -1 -42 -4 -92 -8 -401 -28 -771 -265 -941 -603 -37
-74 -32 -76 -67 27 -8 25 -21 59 -28 75 -7 17 -13 35 -15 40 -2 10 -146 405
-159 436 -5 14 -42 16 -340 15 -183 -1 -335 -3 -338 -6 -2 -3 -21 -52 -41
-110 -21 -58 -41 -114 -46 -125 -4 -11 -54 -148 -110 -305 -56 -157 -106 -294
-110 -305 -5 -11 -41 -110 -81 -220 -136 -381 -147 -410 -159 -440 -6 -16 -13
-37 -16 -45 -2 -8 -31 -89 -64 -180 -34 -91 -70 -190 -80 -220 -11 -30 -49
-136 -85 -234 -36 -99 -65 -183 -65 -188 0 -5 136 -7 303 -6 l302 3 69 205
c38 113 70 206 72 208 2 3 587 4 840 2 l52 0 43 -127 c23 -71 55 -164 69 -208
l27 -80 308 -3 c336 -3 313 -6 290 50 -6 15 -1 15 46 -3 120 -46 264 -71 429
-74 231 -4 414 35 594 129 261 135 462 358 560 620 26 67 26 73 26 340 l0 272
-633 0 -632 0 -1 -216 0 -215 368 1 369 2 -7 -22 c-27 -87 -113 -212 -188
-272 -110 -89 -230 -127 -398 -126 -358 3 -588 199 -645 552 -2 14 -5 68 -7
120 -10 359 170 624 466 689 235 51 472 -19 588 -173 l40 -53 312 0 c172 0
316 1 320 3 12 8 -60 200 -89 235 -7 8 -13 20 -13 26 0 15 -84 127 -138 185
-136 145 -367 268 -571 303 -19 3 -37 7 -40 9 -13 8 -285 26 -294 20z m-1623
-729 c2 -5 6 -17 9 -25 23 -57 257 -759 257 -771 0 -5 -130 -9 -290 -9 -159 0
-290 1 -290 3 0 4 277 830 286 852 7 17 9 16 16 -10 5 -17 10 -34 12 -40z"/>
<path d="M4490 1883 c-45 -7 -130 -36 -130 -44 0 -5 -6 -9 -13 -9 -21 0 -95
-79 -118 -128 -31 -64 -35 -178 -8 -250 86 -225 448 -270 604 -74 126 158 53
409 -139 481 -52 19 -147 31 -196 24z"/>
</g>
</svg>
